# xmcd CD database file
#
# Track frame offsets:
#	150
#	23270
#	42373
#	60317
#	77737
#	98632
#	117394
#	137093
#	158070
#	173643
#	191626
#	209225
#
# Disc length: 3351 seconds
#
# Revision: 1
# Processed by: cddbd v1.5.1PL0 Copyright (c) Steve Scherf et al.
# Submitted via: CDex 1.51
#
DISCID=980d150c
DTITLE=Joe Cocker - The Best Of Joe Cocker
DYEAR=1970
DGENRE=Blues
TTITLE0=Unchain My Heart (90's version)
TTITLE1=You Can Leave Your Hat On
TTITLE2=When The Night Comes
TTITLE3=Up Where We Belong
TTITLE4=Now That The Magic Has Gone
TTITLE5=Don't You Love Me Anymore
TTITLE6=Shelter Me
TTITLE7=Feels Like Forever
TTITLE8=Night Calls
TTITLE9=Sorry Seems To Be The Hardest Word
TTITLE10=Civilized Man
TTITLE11=With A Little Help From My Friends
EXTD=YEAR: 1970
EXTT0=
EXTT1=
EXTT2=
EXTT3=
EXTT4=
EXTT5=
EXTT6=
EXTT7=
EXTT8=
EXTT9=
EXTT10=
EXTT11=
PLAYORDER=
